<svg width="1946" height="210" viewBox="0 0 1946 210" fill="none" xmlns="http://www.w3.org/2000/svg">
<path d="M1.5 1H359.75C414.288 1 458.5 45.2119 458.5 99.75V113.968C458.5 160.654 496.346 198.5 543.032 198.5V198.5C589.718 198.5 627.565 160.654 627.565 113.968V99.75C627.565 45.2119 671.776 1 726.315 1H770.689C825.227 1 869.439 45.2119 869.439 99.75V99.75C869.439 154.288 913.651 198.5 968.189 198.5H1002.69C1057.23 198.5 1101.44 154.288 1101.44 99.75V99.75C1101.44 45.2119 1145.65 1 1200.19 1H1260C1317.44 1 1364 47.5624 1364 105V126.5C1364 172.063 1400.94 209 1446.5 209V209C1492.06 209 1529 172.063 1529 126.5V105C1529 47.5624 1575.56 1 1633 1L1945 1" stroke="#D9E5FF" stroke-width="2" stroke-linecap="round" stroke-dasharray="12 12"/>
</svg>
