<svg width="1548" height="210" viewBox="0 0 1548 210" fill="none" xmlns="http://www.w3.org/2000/svg">
<path d="M1 1H128.75C183.288 1 227.5 45.2119 227.5 99.75V138.25C227.5 171.525 254.475 198.5 287.75 198.5V198.5C321.025 198.5 348 171.525 348 138.25V99.75C348 45.2119 392.212 1 446.75 1H492.75C547.288 1 591.5 45.2119 591.5 99.75V143.25C591.5 173.764 616.236 198.5 646.75 198.5V198.5C677.264 198.5 702 173.764 702 143.25V99.75C702 45.2119 746.212 1 800.75 1H857.5C914.938 1 961.5 47.5624 961.5 105V159.25C961.5 186.726 983.774 209 1011.25 209V209C1038.73 209 1061 186.726 1061 159.25V105C1061 47.5624 1107.56 1 1165 1H1546.5" stroke="#D9E5FF" stroke-width="2" stroke-linecap="round" stroke-dasharray="12 12"/>
</svg>
