<svg width="122" height="24" viewBox="0 0 122 24" fill="none" xmlns="http://www.w3.org/2000/svg">
<path d="M2.53712 22.6157C1.68819 22.6157 1 21.9275 1 21.0786V3.48035C1 2.37578 1.89543 1.48035 3 1.48035H9.55022C9.74236 1.48035 10.0306 1.48035 10.3188 1.48035C10.607 1.48035 10.8952 1.48035 11.1834 1.57642C12.3362 1.76856 13.2969 2.15284 14.1616 2.82532C14.9301 3.40174 15.5065 4.26637 15.8908 5.131C16.2751 6.0917 16.4672 7.14847 16.4672 8.20524C16.4672 9.9345 16.083 11.3755 15.2183 12.5284C14.3537 13.6812 13.1048 14.5458 11.3755 14.8341L10.1266 15.0262H4.07424V21.0786C4.07424 21.9275 3.38604 22.6157 2.53712 22.6157ZM4.07424 12.048H9.45415C9.64629 12.048 9.83843 12.048 10.1266 12.048C10.4148 12.048 10.607 11.952 10.7991 11.952C11.4716 11.7598 11.952 11.5677 12.3362 11.1834C12.7205 10.7991 13.0087 10.3188 13.2009 9.83843C13.393 9.35808 13.4891 8.78166 13.4891 8.30131C13.4891 7.82096 13.393 7.24454 13.2009 6.76419C13.0087 6.28384 12.7205 5.80349 12.3362 5.41921C12.2934 5.37635 12.2486 5.32856 12.2029 5.27747C11.6712 4.68334 10.924 4.36244 10.1266 4.36244C9.9345 4.36244 9.64629 4.36244 9.45415 4.36244H4.07424V12.048ZM14.3963 22.6157C13.7833 22.6157 13.2248 22.2636 12.9605 21.7104L9.26201 13.9694L12.3362 13.2009L15.8254 20.3245C16.3432 21.3817 15.5735 22.6157 14.3963 22.6157Z" fill="#1D1D1D" stroke="#1D1D1D" stroke-width="0.5"/>
<path d="M21.119 22.6157C20.5667 22.6157 20.119 22.168 20.119 21.6157V2.48035C20.119 1.92806 20.5667 1.48035 21.119 1.48035H32.2238C33.0197 1.48035 33.6649 2.12553 33.6649 2.92139C33.6649 3.71726 33.0197 4.36244 32.2238 4.36244H23.1933V10.3188H30.3985C31.1944 10.3188 31.8395 10.964 31.8395 11.7598C31.8395 12.5557 31.1944 13.2009 30.3985 13.2009H23.1933V19.7336H32.2238C33.0197 19.7336 33.6649 20.3788 33.6649 21.1747C33.6649 21.9705 33.0197 22.6157 32.2238 22.6157H21.119Z" fill="#1D1D1D" stroke="#1D1D1D" stroke-width="0.5"/>
<path d="M44.4244 23C42.8872 23 41.5423 22.7118 40.2934 22.2314C39.0445 21.7511 38.0838 20.9825 37.3152 20.0218C36.8701 19.4655 36.4895 18.8447 36.2106 18.1594C35.8646 17.3093 36.5097 16.4525 37.4171 16.315C38.2811 16.1841 39.0694 16.7647 39.5044 17.5225C39.8597 18.1415 40.3469 18.6672 40.9658 19.0611C42.0226 19.7336 43.1755 20.1179 44.5204 20.1179C45.3851 20.1179 46.1536 20.0218 46.8261 19.7336C47.4986 19.4454 48.075 19.0611 48.5554 18.5808C49.0357 18.1004 49.2279 17.4279 49.2279 16.7555C49.2279 16.3712 49.1318 15.9869 49.0357 15.6987C48.9396 15.4105 48.7475 15.1223 48.4593 14.9301C48.1711 14.738 47.9789 14.5459 47.5947 14.3537C47.2104 14.1616 46.9222 14.0655 46.5379 13.9694L41.158 12.3362C40.5816 12.1441 40.1012 11.952 39.5248 11.7598C38.9484 11.4716 38.468 11.1834 37.9877 10.7991C37.5073 10.4148 37.1231 9.9345 36.8348 9.26201C36.5466 8.58952 36.4506 7.91703 36.4506 7.0524C36.4506 5.70742 36.7388 4.65066 37.4113 3.68996C38.0838 2.82533 38.9484 2.05677 40.1012 1.67249C41.5423 1.19214 42.7912 1 44.2322 1C45.6733 1 46.9222 1.28821 48.075 1.76856C49.2279 2.24891 50.0925 2.9214 50.861 3.8821C51.2739 4.3981 51.6035 4.94183 51.8649 5.54304C52.2505 6.42987 51.5879 7.3637 50.6311 7.5044C49.7801 7.62955 49.0145 7.0627 48.5902 6.31449C48.4694 6.10151 48.3309 5.89915 48.1711 5.70742C47.6907 5.131 47.1143 4.65066 46.4418 4.36245C45.7693 4.07424 45.0008 3.8821 44.1362 3.8821C43.3676 3.8821 42.599 3.97817 42.0226 4.26638C41.3501 4.55459 40.8698 4.8428 40.4855 5.32314C40.1012 5.80349 39.9091 6.28384 39.9091 6.95633C39.9091 7.53275 40.1012 8.0131 40.3894 8.39738C40.7737 8.78166 41.158 9.06987 41.6383 9.26201C42.1187 9.45415 42.599 9.64629 43.1755 9.74236L47.1143 10.7991C47.5947 10.8952 48.1711 11.0873 48.7475 11.3755C49.3239 11.5677 49.9964 11.952 50.5728 12.3362C51.1493 12.7205 51.6296 13.2969 52.0139 13.9694C52.3982 14.6419 52.5903 15.5066 52.5903 16.5633C52.5903 17.6201 52.3982 18.5808 51.9178 19.3493C51.5335 20.1179 50.861 20.7904 50.1886 21.3668C49.42 21.9432 48.5554 22.3275 47.5947 22.6157C46.5379 22.9039 45.5772 23 44.4244 23Z" fill="#1D1D1D" stroke="#1D1D1D" stroke-width="0.5"/>
<path d="M62.5327 22.6157C61.6572 22.6157 60.9476 21.906 60.9476 21.0306V4.36244H55.3755C54.5796 4.36244 53.9344 3.71726 53.9344 2.92139C53.9344 2.12553 54.5796 1.48035 55.3755 1.48035H69.6899C70.4858 1.48035 71.131 2.12553 71.131 2.92139C71.131 3.71726 70.4858 4.36244 69.6899 4.36244H64.1179V21.0306C64.1179 21.906 63.4082 22.6157 62.5327 22.6157Z" fill="#1D1D1D" stroke="#1D1D1D" stroke-width="0.5"/>
<path d="M73.4955 22.6157C72.4719 22.6157 71.7471 21.6159 72.0655 20.6431L77.6646 3.5347C78.0657 2.3092 79.2091 1.48035 80.4985 1.48035C81.788 1.48035 82.9314 2.3092 83.3324 3.5347L88.9305 20.6399C89.2494 21.6142 88.5234 22.6157 87.4982 22.6157C86.847 22.6157 86.2695 22.1975 86.0663 21.5788L80.0662 3.30567H80.8348L74.9271 21.5741C74.7263 22.195 74.1481 22.6157 73.4955 22.6157ZM74.9745 17.8122V14.9301H86.0225V17.8122H74.9745Z" fill="#1D1D1D" stroke="#1D1D1D" stroke-width="0.5"/>
<path d="M112.72 22.6157C111.871 22.6157 111.182 21.9275 111.182 21.0786V4.36244H105.514C104.718 4.36244 104.073 3.71726 104.073 2.92139C104.073 2.12553 104.718 1.48035 105.514 1.48035H119.829C120.625 1.48035 121.27 2.12553 121.27 2.92139C121.27 3.71726 120.625 4.36244 119.829 4.36244H114.257V21.0786C114.257 21.9275 113.568 22.6157 112.72 22.6157Z" fill="#1D1D1D" stroke="#1D1D1D" stroke-width="0.5"/>
<path d="M101.994 20.1265L99.7238 15.648C99.4513 15.021 99.5421 14.3044 100.178 13.9461C100.632 13.6774 100.995 13.2295 101.359 12.7817C102.176 11.6172 102.539 10.2737 102.539 8.75093C102.539 7.67607 102.358 6.69079 101.994 5.88464C101.631 4.98892 101.086 4.27235 100.36 3.73492C99.0568 2.77135 97.606 2.30177 96.0001 2.30177H89.582C88.8555 2.30177 88.2197 2.92877 88.2197 3.64535C88.2197 4.36192 88.8555 4.98892 89.582 4.98892H95.9093C99.1457 4.98892 101.185 8.65358 98.6339 11.1694C97.8851 11.9079 96.9001 11.9755 95.9093 11.9755H93.4874C92.7608 11.9755 92.1251 12.6025 92.1251 13.3191C92.1251 14.0357 92.7608 14.6627 93.4874 14.6627H95.2735C95.8185 14.6627 96.2726 14.9314 96.545 15.4688L99.2697 21.0223C99.5421 21.4701 99.9963 21.8284 100.541 21.8284C101.501 21.8284 102.58 21.2822 101.994 20.1265Z" fill="#5F8AE7" stroke="#5F8AE7" stroke-miterlimit="10"/>
</svg>
